<svg xmlns="http://www.w3.org/2000/svg" viewBox="0 0 64 64" width="64" height="64">
  <!-- Maple leaf shape -->
  <g transform="translate(32,34)">
    <!-- Leaf body -->
    <path d="M0,-28 C2,-26 6,-20 4,-16 L10,-18 C12,-14 8,-8 6,-6 L12,-6 C12,-2 6,4 4,6 L8,6 C6,10 2,16 0,22 C-2,16 -6,10 -8,6 L-4,6 C-6,4 -12,-2 -12,-6 L-6,-6 C-8,-8 -12,-14 -10,-18 L-4,-16 C-6,-20 -2,-26 0,-28 Z"
          fill="#E8872A" stroke="#C06820" stroke-width="1"/>
    <!-- Center vein -->
    <line x1="0" y1="-24" x2="0" y2="22" stroke="#C06820" stroke-width="1.2" opacity="0.7"/>
    <!-- Side veins -->
    <line x1="0" y1="-12" x2="-8" y2="-16" stroke="#C06820" stroke-width="0.8" opacity="0.5"/>
    <line x1="0" y1="-12" x2="8" y2="-16" stroke="#C06820" stroke-width="0.8" opacity="0.5"/>
    <line x1="0" y1="-2" x2="-10" y2="-4" stroke="#C06820" stroke-width="0.8" opacity="0.5"/>
    <line x1="0" y1="-2" x2="10" y2="-4" stroke="#C06820" stroke-width="0.8" opacity="0.5"/>
    <line x1="0" y1="6" x2="-6" y2="6" stroke="#C06820" stroke-width="0.8" opacity="0.5"/>
    <line x1="0" y1="6" x2="6" y2="6" stroke="#C06820" stroke-width="0.8" opacity="0.5"/>
    <!-- Stem -->
    <line x1="0" y1="22" x2="1" y2="30" stroke="#8B5E3C" stroke-width="2" stroke-linecap="round"/>
  </g>
</svg>
